<svg xmlns="http://www.w3.org/2000/svg" xmlns:xlink="http://www.w3.org/1999/xlink" viewBox="0 0 27 60">
  <symbol id="checkbox-off" viewBox="0 0 27 23">
    <path d="M20 2c.542 0 1 .458 1 1v17c0 .542-.458 1-1 1H3c-.542 0-1-.458-1-1V3c0-.542.458-1 1-1h17m0-2H3C1.35 0 0 1.35 0 3v17c0 1.65 1.35 3 3 3h17c1.65 0 3-1.35 3-3V3c0-1.65-1.35-3-3-3z"/>
  </symbol>

  <use xlink:href="#checkbox-off" style="fill: #ffffff;" width="27" height="23" x="0" y="0"></use>
  <use xlink:href="#checkbox-off" style="fill: #626363;" width="27" height="23" x="0" y="30"></use>
</svg>
