<svg xmlns="http://www.w3.org/2000/svg" xmlns:xlink="http://www.w3.org/1999/xlink" viewBox="0 0 27 60">
  <symbol id="checkbox-on" viewBox="0 0 27 23">
    <path d="M7.285 7.486l-2.829 2.829 7.783 7.783L26.171 4.166l-2.828-2.829-11.104 11.102z"/>
    <path d="M21 20c0 .542-.458 1-1 1H3c-.542 0-1-.458-1-1V3c0-.542.458-1 1-1h16.908L21.493.415A2.96 2.96 0 0 0 20 0H3C1.35 0 0 1.35 0 3v17c0 1.65 1.35 3 3 3h17c1.65 0 3-1.35 3-3v-9.829l-2 2V20z"/>
  </symbol>

  <use xlink:href="#checkbox-on" style="fill: #ffffff;" width="27" height="23" x="0" y="0"></use>
  <use xlink:href="#checkbox-on" style="fill: #626363;" width="27" height="23" x="0" y="30"></use>
</svg>
